# xmcd CD database file
#
# Track frame offsets:
#	150
#	15375
#	27425
#	39625
#	57725
#	70692
#	87275
#	103677
#	118445
#	133582
#	147162
#	155917
#
# Disc length: 2251 seconds
#
# Revision: 1
# Processed by: cddbd v1.5.1PL0 Copyright (c) Steve Scherf et al.
# Submitted via: CDex 1.51
#
DISCID=ae08c90c
DTITLE=Dr. Feelgood - Brilleaux
DYEAR=1987
DGENRE=Blues
TTITLE0=I Love You, So You're Mine
TTITLE1=You Got My Number
TTITLE2=Big Enough
TTITLE3=Don't Wait Up
TTITLE4=Get Rhythm
TTITLE5=Where Is The Next One?
TTITLE6=Play Dirty
TTITLE7=Grow Too Old
TTITLE8=Rough Ride
TTITLE9=I'm A Real Man
TTITLE10=Come Over Here
TTITLE11=Take What You Can Get
EXTD=ARD Grand records GRAND CD 04 YEAR: 1987
EXTT0=
EXTT1=
EXTT2=
EXTT3=
EXTT4=
EXTT5=
EXTT6=
EXTT7=
EXTT8=
EXTT9=
EXTT10=
EXTT11=
PLAYORDER=
